<mxfile host="app.diagrams.net" modified="2021-06-20T21:18:59.596Z" agent="5.0 (Windows NT 10.0; Win64; x64) AppleWebKit/537.36 (KHTML, like Gecko) Chrome/91.0.4472.106 Safari/537.36" etag="U1uK_oZDC0upGuJ3VlHH" version="14.8.0" type="github">
  <diagram id="W0JB3PmPmPFSWpcL3AuC" name="Page-1">
    <mxGraphModel dx="782" dy="436" grid="1" gridSize="10" guides="1" tooltips="1" connect="1" arrows="1" fold="1" page="1" pageScale="1" pageWidth="850" pageHeight="1100" math="0" shadow="0">
      <root>
        <mxCell id="0" />
        <mxCell id="1" parent="0" />
        <mxCell id="dblbX1pukYvhbIbSW0fP-1" value="" style="ellipse;html=1;shape=startState;fillColor=#000000;strokeColor=#ff0000;" parent="1" vertex="1">
          <mxGeometry x="145" y="80" width="30" height="30" as="geometry" />
        </mxCell>
        <mxCell id="dblbX1pukYvhbIbSW0fP-2" value="" style="edgeStyle=orthogonalEdgeStyle;html=1;verticalAlign=bottom;endArrow=open;endSize=8;strokeColor=#ff0000;entryX=0.5;entryY=0;entryDx=0;entryDy=0;" parent="1" source="dblbX1pukYvhbIbSW0fP-1" target="dblbX1pukYvhbIbSW0fP-4" edge="1">
          <mxGeometry relative="1" as="geometry">
            <mxPoint x="160" y="150" as="targetPoint" />
            <Array as="points" />
          </mxGeometry>
        </mxCell>
        <mxCell id="dblbX1pukYvhbIbSW0fP-3" value="" style="edgeStyle=orthogonalEdgeStyle;rounded=0;orthogonalLoop=1;jettySize=auto;html=1;" parent="1" source="dblbX1pukYvhbIbSW0fP-4" target="dblbX1pukYvhbIbSW0fP-6" edge="1">
          <mxGeometry relative="1" as="geometry" />
        </mxCell>
        <mxCell id="dblbX1pukYvhbIbSW0fP-4" value="&lt;div style=&quot;font-size: 13px&quot;&gt;&lt;font face=&quot;B Zar&quot; style=&quot;font-size: 13px&quot;&gt;انتخاب دکمه ی &lt;br&gt;&lt;/font&gt;&lt;/div&gt;&lt;div style=&quot;font-size: 13px&quot;&gt;&lt;font face=&quot;B Zar&quot; style=&quot;font-size: 13px&quot;&gt;راهنما&lt;/font&gt;&lt;br&gt;&lt;/div&gt;" style="rounded=1;whiteSpace=wrap;html=1;" parent="1" vertex="1">
          <mxGeometry x="100" y="160" width="120" height="60" as="geometry" />
        </mxCell>
        <mxCell id="dblbX1pukYvhbIbSW0fP-5" style="edgeStyle=orthogonalEdgeStyle;rounded=0;orthogonalLoop=1;jettySize=auto;html=1;entryX=0.5;entryY=0;entryDx=0;entryDy=0;" parent="1" source="dblbX1pukYvhbIbSW0fP-6" target="dblbX1pukYvhbIbSW0fP-7" edge="1">
          <mxGeometry relative="1" as="geometry" />
        </mxCell>
        <mxCell id="dblbX1pukYvhbIbSW0fP-6" value="&lt;font face=&quot;B Zar&quot; style=&quot;font-size: 13px&quot;&gt;نمایش صفحه راهنما شامل توضیحاتی درباره قسمت های مختلف برنامه&lt;/font&gt;" style="rounded=1;whiteSpace=wrap;html=1;" parent="1" vertex="1">
          <mxGeometry x="100" y="300" width="120" height="60" as="geometry" />
        </mxCell>
        <mxCell id="dblbX1pukYvhbIbSW0fP-7" value="" style="ellipse;html=1;shape=endState;fillColor=#000000;strokeColor=#ff0000;" parent="1" vertex="1">
          <mxGeometry x="145" y="440" width="30" height="30" as="geometry" />
        </mxCell>
        <mxCell id="MeLYJZq8WNGl-QtdD5fE-1" value="&lt;font color=&quot;#f64d7b&quot; size=&quot;1&quot;&gt;&lt;b style=&quot;font-size: 13px&quot;&gt;remove&lt;/b&gt;&lt;/font&gt;" style="text;html=1;strokeColor=none;fillColor=none;align=center;verticalAlign=middle;whiteSpace=wrap;rounded=0;" vertex="1" parent="1">
          <mxGeometry x="280" y="240" width="40" height="20" as="geometry" />
        </mxCell>
      </root>
    </mxGraphModel>
  </diagram>
</mxfile>
